# xmcd
#
# Track frame offsets:
#	150
#	18808
#	33618
#	49576
#	63988
#	78708
#	93553
#	107668
#	124717
#	140366
#	155701
#	170158
#	185775
#	202311
#	217168
#	232094
#	246526
#	260909
#
# Disc length: 3675 seconds
#
# Revision: 0
# Processed by: cddbd v1.5.2PL0 Copyright (c) Steve Scherf et al.
# Submitted via: EasyCDDAExtractor 16.0.6.1
#
DISCID=1f0e5912
DTITLE=Συλλογικός δίσκος - Μουσικό ημερολόγιο 2005 Για φίλους λαϊκού τραγουδιο
DTITLE=ύ
DYEAR=2005
DGENRE=Ποικίλη
TTITLE0=Άνευ ερμηνευτού - Μινόρε του τεκέ [Τζακ Γρηγορίου Χαλκιά, σόλο μπ. ιδί
TTITLE0=ου]
TTITLE1=Τσαουσάκης Πρόδρομος-Ντάλια Ρένα - Φέρτε μιά κούπα με κρασί [Απ. Καλδά
TTITLE1=ρα-Χαρ. Βασιλειάδη]
TTITLE2=Καζαντζίδης Στέλιος-Γκρέϋ Καίτη - Βαθιά στη θάλασσα θα πέσω [Γ. Ζαμπέτ
TTITLE2=α-Χαρ. Βασιλειάδη]
TTITLE3=Νίνου Μαρίκα - Πες μου, αν με βαρέθηκες [Μανώλη Χιώτη]
TTITLE4=Μπέλλου Σωτηρία - Φοβάμαι μη σε χάσω [Γ. Παπαϊωάννου-Αλέκου Αγγελόπουλ
TTITLE4=ου]
TTITLE5=Κρεούζης Ορφέας-Γεωργακοπούλου Ιωάννα - Ηλιοβασίλεμα σωστό [Γιώργου Λα
TTITLE5=ύκα-Κώστα Μάνεση]
TTITLE6=Παγιουμτζής Στράτος - Κάτσε να ακούσεις μιά πενιά [Βασίλη Τσιτσάνη]
TTITLE7=Τσαουσάκης Πρόδρομος - Γλυκοχαράζει ο Αυγερινός [Γ. Τατασσόπουλου-Νίκο
TTITLE7=υ Ρούτσου]
TTITLE8=Καζαντζίδης Στέλιος - Θλιμμένο δειλινό [Γιώργου Μητσάκη]
TTITLE9=Παπαϊωάννου Γιάννης - Πήρα τον δρόμο τον παλιό [Γιάννη Παπαϊωάννου]
TTITLE10=Τσαουσάκης Πρόδρομος - Το πικραμένο αγόρι [Πρόδρομου Τσαουσάκη-Χαρ. Β
TTITLE10=ασιλειάδη]
TTITLE11=Στάμου Ρένα - Πήρα τον δρόμο τον κακό [Απ. Καλδάρα-Κώστα Βίρβου]
TTITLE12=Παγιουμτζής Στράτος - Μοίρα με καταδίκασες [Στράτου Παγιουμτζή-Χαρ. Β
TTITLE12=ασιλειάδη]
TTITLE13=Νίνου Μαρίκα-Χιώτης Μανώλης - Παράξενη κοπέλα [Μανώλη Χιώτη]
TTITLE14=Μπέλλου Σωτηρία - Το μεράκι της καρδιάς [Γιώργου Μητσάκη]
TTITLE15=Ντούο Χάρμα - Κάποια μάννα αναστενάζει [Βασ. Τσιτσάνη-Μπάμπη Μπακάλη]
TTITLE16=Γεωργακοπούλου Ιωάννα - Συννέφιασε, συννέφιασε [Γιώργου Μητσάκη]
TTITLE17=Άνευ ερμηνευτού - Ταξίμ ζεϊμπέκικο [Μάρκου Βαμβακάρη, σόλο μπ. ιδίου]
EXTD=
EXTT0=
EXTT1=
EXTT2=
EXTT3=
EXTT4=
EXTT5=
EXTT6=
EXTT7=
EXTT8=
EXTT9=
EXTT10=
EXTT11=
EXTT12=
EXTT13=
EXTT14=
EXTT15=
EXTT16=
EXTT17=
PLAYORDER=
